<svg width="109" height="137" viewBox="0 0 109 137" fill="none" xmlns="http://www.w3.org/2000/svg">
<path d="M17 3.88344C5.8 5.48344 1 13.5501 0 17.3834V101.383C0 110.383 14.5 111.883 28 111.883H75L108.5 136.883V17.3834C108.5 7.78345 99.5 4.38344 95 3.88344C73.6667 3.21678 28.2 2.28344 17 3.88344Z" fill="url(#paint0_linear_1_16)"/>
<path d="M83.6364 45H75.1818C74.6818 42.5682 73.8068 40.4318 72.5568 38.5909C71.3295 36.75 69.8295 35.2045 68.0568 33.9545C66.3068 32.6818 64.3636 31.7273 62.2273 31.0909C60.0909 30.4545 57.8636 30.1364 55.5455 30.1364C51.3182 30.1364 47.4886 31.2045 44.0568 33.3409C40.6477 35.4773 37.9318 38.625 35.9091 42.7841C33.9091 46.9432 32.9091 52.0455 32.9091 58.0909C32.9091 64.1364 33.9091 69.2386 35.9091 73.3977C37.9318 77.5568 40.6477 80.7045 44.0568 82.8409C47.4886 84.9773 51.3182 86.0455 55.5455 86.0455C57.8636 86.0455 60.0909 85.7273 62.2273 85.0909C64.3636 84.4545 66.3068 83.5114 68.0568 82.2614C69.8295 80.9886 71.3295 79.4318 72.5568 77.5909C73.8068 75.7273 74.6818 73.5909 75.1818 71.1818H83.6364C83 74.75 81.8409 77.9432 80.1591 80.7614C78.4773 83.5795 76.3864 85.9773 73.8864 87.9545C71.3864 89.9091 68.5795 91.3977 65.4659 92.4205C62.375 93.4432 59.0682 93.9545 55.5455 93.9545C49.5909 93.9545 44.2955 92.5 39.6591 89.5909C35.0227 86.6818 31.375 82.5455 28.7159 77.1818C26.0568 71.8182 24.7273 65.4545 24.7273 58.0909C24.7273 50.7273 26.0568 44.3636 28.7159 39C31.375 33.6364 35.0227 29.5 39.6591 26.5909C44.2955 23.6818 49.5909 22.2273 55.5455 22.2273C59.0682 22.2273 62.375 22.7386 65.4659 23.7614C68.5795 24.7841 71.3864 26.2841 73.8864 28.2614C76.3864 30.2159 78.4773 32.6023 80.1591 35.4205C81.8409 38.2159 83 41.4091 83.6364 45Z" fill="white"/>
<circle cx="46.5" cy="58.5" r="4.5" fill="#D9D9D9"/>
<circle cx="61.5" cy="58.5" r="4.5" fill="#D9D9D9"/>
<circle cx="76.5" cy="58.5" r="4.5" fill="#D9D9D9"/>
<defs>
<linearGradient id="paint0_linear_1_16" x1="5" y1="9" x2="108" y2="137" gradientUnits="userSpaceOnUse">
<stop offset="0.0105299" stop-color="#04CF45"/>
<stop offset="1" stop-color="#026923"/>
</linearGradient>
</defs>
</svg>
